<svg width="344" height="356" viewBox="0 0 344 356" fill="none" xmlns="http://www.w3.org/2000/svg">
<path fill-rule="evenodd" clip-rule="evenodd" d="M141.842 233.116C161.647 229.026 179.255 220.182 193.718 208.02C207.448 225.485 228.241 249.298 252.354 274.759C298.36 323.335 339.031 359.518 343.194 355.574C347.358 351.631 313.438 309.055 267.432 260.478C243.313 235.012 220.661 212.952 203.966 198.294C229.163 171.33 241.325 132.961 233.295 94.0703C220.153 30.4197 157.9 -10.5253 94.2494 2.61698C30.5989 15.7592 -10.3461 78.0121 2.79616 141.663C15.9384 205.313 78.1912 246.258 141.842 233.116ZM138.343 216.167C155.585 212.607 170.874 204.822 183.351 194.116C185.904 191.926 188.338 189.614 190.648 187.19C212.602 164.158 223.268 131.091 216.347 97.5696C205.137 43.2795 152.039 8.35576 97.7493 19.5653C43.4591 30.7749 8.53544 83.8729 19.745 138.163C30.9546 192.453 84.0526 227.377 138.343 216.167Z" fill="#1E1E1E"/>
</svg>
